Patient4_TMGait_0pt3_03_left_29_EMG.mot
version=1
nRows=20
nColumns=33
inDegrees=no
endheader
time	1LAddLong	2LGlutMax	3LGlutMed	4LIliopsoas	5LSemiMemb	6LBicFemLong	7LRecFem	8LVastMed	9LVastLat	10LGasMed	11LTibAnt	12lTibPost	13LPeroneusLong	14LSol	15LExtDigLong	16LFlexDigLong	17RAddLong	18RGlutMax	19RGlutMed	20RIliopsoas	21RSemiMemb	22RBicFemLong	23RRecFem	24RVastMed	25RVastLat	26RGasMed	27RTibAnt	28RTibPost	29RPeroneusLong	30RSol	31RExtDigLong	32RFlexDigLong
52.615	0.030823	0.049133	-0.29709	0.009766	0.007629	-0.11566	0.056	-0.007477	0.025482	-0.31525	0.0177	-0.010071	-0.059052	0.021057	-0.16403	-0.005951	0.013885	0.024261	-0.13016	-0.035706	-0.058594	0.034943	-0.086365	-0.030975	0.000458	0.001526	0.14221	-0.006866	-0.074921	-0.000916	0.002289	-0.009613
52.616	0.002136	0.050354	-0.20569	-0.001526	0.030823	-0.096741	0.063629	-0.005341	0.013733	-0.28778	0.056763	0.000153	-0.29358	0.065613	-0.11734	-0.02121	0.00824	-0.003815	-0.15747	-0.05188	0.022736	0.027161	-0.16647	-0.045166	0.015259	-0.002594	0.039368	-0.000763	-0.13046	0.007782	-0.000916	-0.01297
52.617	0.005798	0.058136	-0.14679	-0.001526	0.056915	-0.054169	0.0737	0.00061	0.007782	-0.27985	0.001678	0.00412	-0.31967	-0.001221	0.16525	0.001373	0.012512	0.006256	-0.26443	-0.025635	0.067291	0.012665	-0.20783	-0.048523	0.041199	-0.003204	0.064545	-0.002899	-0.099487	-0.0354	0.000153	-0.016479
52.618	0.000305	0.075684	-0.17883	0.006256	0.05249	-0.012054	0.103	-0.00351	-0.001984	-0.27588	-0.095215	0.005493	-0.36133	0.056915	0.077209	0.009918	0.00061	-0.004272	-0.35797	-0.015717	0.036469	0.011139	-0.20615	-0.038147	0.067139	-0.002899	0.041809	0.00885	-0.099335	-0.068665	0.001526	-0.007477
52.619	0.00351	0.022736	-0.1268	0.013123	0.003052	0.013428	0.11765	0.004578	0.005646	-0.34027	-0.086517	-0.001526	-0.20706	-0.010376	-0.031433	-0.01709	-0.016785	-0.017548	-0.1712	0.028992	0.006561	0.006104	-0.16464	-0.059814	0.052032	-0.002136	0.042877	-0.002136	-0.12405	-0.035858	0.002289	-0.004272
52.62	-0.00946	0.076141	-0.10986	0.003967	-0.046692	0	0.10407	-0.003662	0.015564	-0.35568	-0.019073	0.002594	0.030823	-0.087128	-0.1239	-0.01297	-0.007172	-0.023499	-0.000916	0.015869	-0.035858	-0.015106	-0.071106	-0.035248	0.042267	-0.002747	0.069427	-0.002594	-0.023041	0.008545	-0.00061	-0.005798
52.621	0.013123	0.070801	-0.28809	0.02121	-0.076447	-0.016632	0.070801	-0.00351	0.018616	-0.076294	0.026398	0.00824	0.10757	-0.10498	-0.10269	-0.000458	0.009155	-0.056763	-0.12741	-0.00351	-0.065308	-0.000458	-0.085297	-0.103	0.039063	-0.002594	0.11795	-0.001984	-0.097351	0.074768	-0.000458	-0.005798
52.622	0.001373	0.036011	-0.3363	0.009155	0.043945	0.010834	0.089264	-0.005035	0.00412	0.059204	0.022888	0.000305	0.13672	-0.034332	-0.026093	0.0177	0.00824	-0.036774	0.15015	-0.046387	-0.063934	0.000763	-0.072174	-0.087128	0.025635	0.001526	0.078735	-0.001678	-0.01236	0.052032	-0.001831	-0.009003
52.623	0.014191	0.04425	-0.19455	0.004578	0.052032	-0.032654	0.10635	-0.001221	-0.006714	0.25284	0.009766	0.015564	0.16846	-0.087585	-0.04364	0.016174	0.018616	-0.042572	0.33737	-0.12405	-0.046082	0.007629	-0.10223	-0.11398	0.024719	-0.002594	0.14099	-0.006409	0.15778	-0.021057	0.000153	0.000458
52.624	0.017242	0.065155	-0.15442	0.018921	0.072784	-0.030212	0.10574	-0.001678	-0.00885	0.25757	-0.000763	0.01297	0.1265	-0.11017	-0.050507	-0.001984	0.022125	-0.069122	0.62515	-0.30014	0.056152	0.007782	-0.10757	-0.1207	0.044098	0	0.079803	-0.002136	0.41367	-0.018768	0.001221	-0.002899
52.625	0.02533	0.025635	-0.20767	0.023499	0.081177	0.004578	0.14481	0.001526	-0.021515	0.24216	0.015106	0.004883	0.066833	-0.082855	0.022278	-0.030518	0.019531	-0.092468	0.15701	-0.33707	0.089264	-0.032806	-0.10574	-0.043488	0.050354	0.001221	-0.36591	-0.002594	0.11154	-0.013733	0.010071	-0.017395
52.626	0.020599	0.025024	-0.18387	0.012817	0.063782	0.027008	0.15686	0.001373	-0.027618	-0.019226	0.021057	0.027466	0.058899	-0.079498	0.039825	-0.029449	0.012817	-0.039368	0.25879	-0.053101	0.069275	-0.042725	-0.053253	0.13001	0.044708	0.001068	-0.015106	-0.006866	-0.068817	0.012512	0.001831	-0.011292
52.627	0.005646	0.007477	-0.18906	0.000305	0.016632	0.066986	0.15991	0.001678	-0.030823	-0.2243	0.013885	-0.005341	0.007935	-0.0737	0.021362	-0.011444	0.00824	-0.02243	0.20828	0.09491	-0.029602	-0.06546	0.035858	0.086365	0.009003	-0.006866	0.14404	-0.005035	-0.088654	0.016479	-0.000458	-0.008545
52.628	0.010529	-0.045624	-0.21149	0.010529	-0.041962	0.061035	0.17334	0.006104	-0.037537	-0.37399	0.004578	0.003052	0.003357	-0.11597	0.018921	-0.010071	-0.049744	-0.02655	-0.027466	0.215	0.012512	-0.043793	-0.050507	0.015411	-0.012054	0.000305	0.059509	-0.007019	0.46814	0.003967	0.001984	-0.01297
52.629	0.002747	-0.033112	-0.19455	-0.002747	-0.055084	0.044708	0.1738	0.001068	-0.031891	-0.20386	0.014038	0.007172	-0.025177	-0.12253	0.02533	0.004425	-0.045013	-0.075531	-0.078278	0.26642	-0.021515	0.027161	-0.001526	0.060425	-0.00946	-0.005951	0.06897	-0.003357	0.26123	0.019684	0	-0.012207
52.63	0.013123	-0.063629	-0.19867	-0.015411	-0.013733	-0.00473	0.17685	-0.002747	-0.02594	0.070343	0.022888	0.015259	-0.12955	-0.10239	0.015411	-0.000458	-0.023651	-0.040131	0.103	0.30151	-0.23239	0.051727	0.009155	0.10422	-0.03952	-0.001678	0.12924	-0.006256	0.03952	0.009155	0	-0.023804
52.631	0.00885	-0.038147	-0.18051	0.001984	0.061798	-0.014191	0.18219	0.001831	-0.016937	0.19257	0.023041	0.010376	0.070801	-0.076294	0.006409	-0.003815	-0.030823	-0.083466	0.096436	0.16663	-0.2005	-0.009766	0.018768	0.1239	-0.035095	-0.003052	0.13641	0.006256	-0.34531	0.041046	0.004578	-0.015259
52.632	0.007629	-0.026093	-0.21103	0.006561	0.015106	-0.01358	0.18188	-0.004425	-0.030212	0.11993	0.002594	0.006866	0.1831	-0.024719	0.026398	-0.006256	0.001984	-0.063782	-0.059814	0.036316	-0.16602	-0.019684	0.051727	0.068512	-0.02533	0.006104	0.1265	-0.003052	-0.71915	0.060577	-0.001068	-0.003662
52.633	0.001373	-0.079803	-0.20309	0.013733	0.010681	-0.02594	0.21439	-0.001526	-0.019989	0.086365	0.003967	0.000763	-0.032806	0.036011	0.025024	-0.00473	0.019073	-0.025482	-0.067139	-0.026398	-0.22797	-0.001678	0.11704	-0.006561	-0.064087	-0.006256	0.098267	-0.00824	-0.41824	0.11551	0.000916	-0.010223
52.634	-0.005035	-0.066986	-0.25971	0.025177	0.064087	-0.007019	0.2214	-0.003052	-0.034332	0.062103	0.006409	0.005646	-0.24963	0.078735	0.050201	-0.028381	0.029144	-0.0383	0.033417	-0.03418	-0.36987	-0.000458	0.11902	-0.10696	-0.065613	-0.005188	0.071106	-0.005035	0.14114	0.085449	0.000458	-0.00946
